<?xml version="1.0" encoding="utf-8"?>
<!-- Generator: Adobe Illustrator 26.0.3, SVG Export Plug-In . SVG Version: 6.00 Build 0)  -->
<svg version="1.0" id="katman_1" xmlns="http://www.w3.org/2000/svg" xmlns:xlink="http://www.w3.org/1999/xlink" x="0px" y="0px"
	 viewBox="0 0 600 450" style="enable-background:new 0 0 600 450;" xml:space="preserve">
<style type="text/css">
	.st0{fill:#020304;}
	.st1{fill:#EF9B2F;}
	.st2{opacity:0.76;fill:#EFE400;enable-background:new    ;}
	.st3{fill:#EF7A90;}
	.st4{fill:#F6CCD2;}
	.st5{fill:#B66223;}
	.st6{fill:#EAEAEA;}
	.st7{fill:#010202;}
	.st8{fill:#FFFFFF;}
	.st9{fill:#F19931;}
	.st10{fill:#B16029;}
	.st11{fill:#020203;}
	.st12{fill:#F2E500;}
	.st13{fill:#BEBDBD;}
	.st14{fill:#B5B5B5;}
</style>
<path class="st0" d="M476.1,275.7c-2.3-9.6-8.6-18-13.5-25.2c-18.2-26.7-25.1-36-28.4-59.7c40-0.7,70.2-35.4,70.2-72.9
	c0-37.9-25.1-68.6-56-68.6c-21.8,0-38.5,12.9-50.5,33.9c-3.8,6.7-13.3,19-26,22.4c-7.7-4.7-15.8-8.6-24.2-11.8
	c7.4-16.9-0.3-31.5-4.1-37.1c-0.6-0.8-1.7-1-2.5-0.5c-0.2,0.2-0.5,0.4-0.6,0.7c-2.3,4.6-8,13.8-17.1,17.4
	c-1.8-21.8-16.1-33.9-21.7-37.8c-1.3-0.9-3.1-0.9-4.4,0c-5.8,3.9-21,16.2-21.8,38.2c-9.6-3.4-15.5-13.1-17.9-17.8
	c-0.4-0.9-1.5-1.2-2.4-0.8c-0.3,0.1-0.5,0.3-0.7,0.6c-3.8,5.5-11.4,19.8-4.4,36.5c-8.6,3.1-16.9,7-24.7,11.7
	c-11.6-4.1-20.2-15.4-23.8-21.7c-12-21-28.6-33.9-50.5-33.9c-30.9,0-56,30.7-56,68.6c0,37.7,30.5,72.6,70.8,72.9
	c-0.2,1.4-0.4,2.9-0.6,4.4c-1.1,10.5-4.4,20.6-9.7,29.8c-4.1,7.1-9.6,15-16.8,25.6c-4.9,7.3-11.2,15.6-13.5,25.2
	c-3.1,12.6-2.5,28.9-12.9,38.8c5,1.8,13.1,0.6,18-1.9l0,0c-2.1,16.8,3.2,38.5,16.8,52.3c2-9.3,4.9-15.1,8.1-18.6
	c6.5,13.4,17.5,24.1,31.1,30.2c-0.5-9.8-0.6-15.8,0.1-19.6c10.8,19.5,32.2,32.8,56.8,32.8c0.9,0,1.7,0,2.6-0.1
	c11.7,15.7,30.8,25.9,52.4,25.9c21.8,0,41-10.4,52.6-26.3c2.5,0.3,5,0.4,7.6,0.4c24.6,0,46-13.3,56.8-32.8c0.7,3.7,0.6,9.8,0.1,19.6
	c13.6-6.1,24.6-16.8,31.1-30.2c3.2,3.5,6,9.3,8.1,18.6c13.6-13.8,18.9-35.5,16.8-52.3l0,0c4.9,2.5,13,3.8,18,1.9
	C478.5,304.6,479.1,288.3,476.1,275.7z"/>
<path class="st1" d="M448.4,61.6c-20.2-2.4-31.2,10.3-40,27.2c-3.4,6.4-15.3,19.4-24.4,22.3c7.8,5.1,15.8,13.4,23.2,23.9
	c5.6-6.2,12.4-12.2,17.7-17.5c16.1-15.8,34.3-9.5,40.1,2.1c6.2,12.3,0.6,28.9-16.7,38.4c-7,3.7-14.7,6.2-22.6,7.2
	c-0.7,0.1-1.5,0.2-2.2,0.3c1.4,3.5,2.5,6.9,3.5,10.2c42.7,1.7,62.6-28.6,62.6-58.8C489.6,86.3,470.5,64.2,448.4,61.6z"/>
<path class="st2" d="M391.8,117.1c9.1-2.9,21.3-15.7,24.6-22.2c8.8-16.9,19.8-29.6,40-27.2c5.7,0.7,11.2,2.6,16,5.6
	c-6.8-6.5-15.2-10.7-24-11.8c-20.2-2.4-31.2,10.3-40,27.2c-3.4,6.4-15.3,19.4-24.4,22.3C386.7,112.9,389.3,114.9,391.8,117.1z"/>
<path class="st3" d="M454.5,125.1c-3.5-6.9-11.1-9.8-23.4-1.2c-6.2,4.3-14.8,17.2-17.9,21.5c1.9,3,4.3,9.1,4.5,9.7
	c6.3-0.9,16.9-3.6,23.2-6.6C453.9,142.4,458.2,132.5,454.5,125.1z"/>
<path class="st4" d="M434.5,126.7c6.5-4.5,11.8-6.3,16.2-6.3c-4.2-3-10.6-2.8-19.5,3.4c-6.2,4.3-14.8,17.2-17.9,21.5
	c0.8,1.3,1.5,2.6,2.1,4C420,142.8,428.3,131.1,434.5,126.7z"/>
<path class="st5" d="M475.7,76.7c1.5,5.9,2.3,11.9,2.3,17.9c0.1,13.1-3.6,26-10.5,37.2c-0.7,9.6-7.1,19.6-19,26.2
	c-7.1,3.7-14.7,6.2-22.6,7.2c-0.7,0.1-1.5,0.2-2.2,0.3c1.4,3.5,2.5,6.9,3.5,10.2c42.7,1.7,62.6-28.6,62.6-58.8
	C489.6,100.5,484.2,86.6,475.7,76.7z"/>
<path class="st1" d="M149.5,61.6c20.2-2.4,31.2,10.3,40,27.2c3.4,6.4,15.3,19.4,24.4,22.3c-7.7,5.1-15.8,13.4-23.2,23.9
	c-5.6-6.2-12.4-12.2-17.7-17.5c-16.1-15.8-34.3-9.5-40.1,2.1c-6.2,12.3-0.6,28.9,16.7,38.4c7,3.7,14.7,6.2,22.6,7.2
	c0.7,0.1,1.5,0.2,2.2,0.3c-1.3,3.5-2.5,6.9-3.5,10.2c-42.7,1.7-62.6-28.6-62.6-58.8C108.2,86.3,127.3,64.2,149.5,61.6z"/>
<path class="st2" d="M206.1,117.1c-9.1-2.9-21.3-15.7-24.6-22.2c-8.8-16.9-19.8-29.6-40-27.2c-5.7,0.7-11.2,2.6-16,5.6
	c6.8-6.5,15.2-10.7,24-11.8c20.2-2.4,31.2,10.3,40,27.2c3.4,6.4,15.3,19.4,24.4,22.3C211.1,112.9,208.5,114.9,206.1,117.1z"/>
<path class="st3" d="M143.3,125.1c3.5-6.9,11.1-9.8,23.4-1.2c6.2,4.3,14.8,17.2,17.9,21.5c-1.9,3-4.3,9.1-4.5,9.7
	c-6.3-0.9-16.9-3.6-23.2-6.6C143.9,142.4,139.6,132.5,143.3,125.1z"/>
<path class="st4" d="M163.3,126.7c-6.5-4.5-11.8-6.3-16.2-6.3c4.2-3,10.6-2.8,19.5,3.4c6.2,4.3,14.8,17.2,17.9,21.5
	c-0.8,1.3-1.5,2.6-2.1,4C177.9,142.8,169.6,131.1,163.3,126.7z"/>
<path class="st5" d="M122.2,76.7c-1.5,5.9-2.3,11.9-2.3,17.9c-0.1,13.1,3.6,26,10.6,37.2c0.7,9.6,7.1,19.6,19,26.2
	c7,3.7,14.7,6.2,22.6,7.2c0.7,0.1,1.5,0.2,2.2,0.3c-1.3,3.5-2.5,6.9-3.5,10.2c-42.7,1.7-62.6-28.6-62.6-58.8
	C108.2,100.5,113.7,86.6,122.2,76.7z"/>
<path class="st6" d="M435.5,301.9h-64.4c-16.4,0-31.9-8.5-40.2-22.6c-7.9-13.4-13-32.6-14.1-57.9c0,0.2,0,0.4,0,0.6v-0.6
	c0.1-80.8,16.5-107.9,61.6-100.4h2.2c-8.6-12.5-27.8-17.9-44.7-17.9h-17.3c1.8-0.8,3.5-1.7,5.2-2.8c8.5-5.1,13.5-16,14.1-21.5
	c0.2-2-1-0.3-1.2,0c-3.3,4.5-9.5,8.7-16.3,11.4c-4.1,1.7-8.5,2.8-12.9,3.3c2.7-4.7,4.5-12,4.5-20.3c0-9.9-5.6-18.5-9-22.8
	c-1.1-1.3-3-1.6-4.3-0.5c-0.2,0.2-0.4,0.3-0.5,0.5c-3.3,4.2-9,12.8-9,22.8c0,8.2,1.7,15.5,4.4,20.2c-4.2-0.6-8.2-1.7-12.1-3.2
	c-6.8-2.7-13.1-6.9-16.3-11.4c-0.2-0.3-1.5-2-1.2,0c0.6,5.5,5.6,16.5,14.1,21.5c1.7,1,3.4,1.9,5.2,2.8h-16.2
	c-16.9,0-37.5,5.4-46.8,17.9h1.2c40.5-6.9,61.4,19.6,61.6,100.4l0,0c-1.1,25.4-6.2,44.5-14.1,57.9c-8.4,14.2-23.8,22.7-40.3,22.7
	h-66.2c-11.2,0-20.4,8-19.8,20.9l0,0c0,0,5.4-6.9,9.2-7.9c0.7-0.3,1.5,0.1,1.7,0.8c0,0.1,0.1,0.3,0.1,0.4c0.1,12,6.9,26.8,21,34.4
	c0,0,1.1-8.5,1.8-11.1c1-3.5,2.4-6.8,4.3-9.8c4.7,9.9,11.2,18.9,19.1,26.5c16.8,16,39.4,20.9,39.4,20.9l0,0c0,0-2.5-5.5-3.1-9.8
	c-0.4-3.2-0.4-6.5-0.1-9.7c7.4,8.6,15.2,16.8,23.5,24.5c13.9,13.1,20.8,16.5,39.4,17.9c15.9-0.1,25.5-4.8,39.4-17.9
	c8.3-7.7,16.1-15.9,23.5-24.5c0.3,3.2,0.2,6.5-0.1,9.7c-0.6,4.3-3.1,9.8-3.1,9.8l0,0c0,0,22.6-4.9,39.4-20.9
	c7.9-7.6,14.4-16.6,19.1-26.5l0,0c1.9,3.1,3.3,6.4,4.3,9.8c0.8,2.6,1.8,11.1,1.8,11.1c14.1-7.7,20.9-22.6,21-34.7
	c0-0.6,0.6-1.1,1.2-1.1c0.1,0,0.2,0,0.3,0.1c4.5,1.1,9.5,8,9.5,8l0,0C455.9,309.9,446.7,301.9,435.5,301.9z"/>
<path class="st7" d="M337.3,316.9c-7.7-0.8-14.3,2.1-18,6.7c-1.7,2.2-7.6,7.8-16.2,3.4v-15c10.6-1.5,18.8-9.2,18.8-15.9
	c0-7.5-10.1-10.9-22.5-10.9c-12.4,0-22.5,3.4-22.5,10.9c0,6.7,8.1,14.4,18.8,15.9v15c-7.4,4.3-14.5-1-15.6-2.7
	c-3.5-5.1-10.4-8.3-18.5-7.5c-7.6,0.6-13.5,6.6-14.2,14.2c2.8-2.5,7.7-8.8,13.5-8.6c2.7,0.1,5.2,2.4,7.5,5.8
	c1.5,9.1,7.3,40.8,13.8,50.5c6.2,9.2,25.8,8,32,0c4.8-6.2,12.3-37.1,15-48.6c2.7-4.6,5.7-7.8,8.7-7.7c7.1,0.2,10.8,6.2,13.5,8.6
	C350.8,323.5,344.8,317.5,337.3,316.9z"/>
<path class="st3" d="M316.7,296.3c0,4.1-7.6,9.8-16.9,9.8c-9.4,0-16.9-5.8-16.9-9.8c0-4.1,7.6-4.9,16.9-4.9
	C309.1,291.3,316.7,292.2,316.7,296.3z"/>
<path class="st4" d="M307.2,295.2c0,2-3.7,4.8-8.2,4.8c-4.5,0-8.2-2.8-8.2-4.8s3.7-2.4,8.2-2.4C303.5,292.8,307.2,293.2,307.2,295.2
	z"/>
<path class="st8" d="M301.5,336.4l-2.7,9.7l-2-9.8c-0.2-0.9-1.1-1.5-2-1.3c0,0-0.1,0-0.1,0l-7.6,1.9l3.8,13.2c0.3,2,2,3.4,4,3.4h7.7
	c2,0,3.7-1.4,4-3.4l3.8-13.2l-6.9-1.7C302.7,334.9,301.8,335.4,301.5,336.4C301.5,336.3,301.5,336.3,301.5,336.4z"/>
<path class="st9" d="M425.6,208.2c8,31.4,41.9,54.8,39.4,80c-5.5-5.5-17.2-6.2-20.9-6.2c1.8,1.8,4.3,5.5,5.5,11.1
	c-33.2-12.3-66.5-4.9-83.1-5.5c-24.6-0.9-36.3-32.6-36.3-76.9s10.7-80.6,35.4-80.6c12.7,0,24.4,1.8,37.2,15.4
	C413.9,157.1,420.3,187.4,425.6,208.2z"/>
<path class="st10" d="M425.6,208.2c-5.3-20.8-11.7-51.1-22.8-62.8c-12-12.7-23-15.1-34.8-15.4c25.9,11.3,35.7,47.6,39.7,68.3
	c9.2,48,35.1,45.6,38.8,76.3c-6.2-4.9-16.6-4.9-20.3-4.9c1.6,1.6,5.5,8.5,5.5,18.5c6.8,1.2,12.3,3.1,17.9,4.9
	c-1.2-5.5-3.7-9.2-5.5-11.1c3.7,0,15.4,0.6,20.9,6.2C467.5,263,433.6,239.6,425.6,208.2z"/>
<path class="st11" d="M401,202.7c-1.4-1.4-12.7,5.2-24.6,16c0.9-3.9,2.3-7.7,4-11.2c3.7-7.5,8.9-13.5,14.5-17.4
	c-10.3,1.4-22.3,11.8-29.9,27.1c-2.2,4.4-3.9,9.1-5.1,13.9c-1.5,6-3.5,11.8-6.1,17.4c-4.5,10.3-5.7,19-4.6,20.1
	c9.2,9.2,39.3,7.7,52.3-9.8C415.8,239.6,414,215.7,401,202.7z"/>
<path class="st6" d="M397.9,216.2c1.1,0.8,6.2,19.1-5.5,35.7c-9,12.7-22.8,13.5-32.6,10.5c-0.2-0.1-1.3-0.8-1.2-1.8
	c0.3-4.5,5-16.7,14.2-25.9C389.3,218.1,397.7,216.1,397.9,216.2z"/>
<circle class="st11" cx="372.4" cy="244.2" r="12"/>
<path class="st9" d="M173.8,208.2c-8,31.4-41.9,54.8-39.4,80c5.5-5.5,17.2-6.2,20.9-6.2c-1.8,1.8-4.3,5.5-5.5,11.1
	c34.5-11.1,66.5-3.3,83.1-3.7c24.6-0.6,36.3-34.4,36.3-78.8s-10.7-80.6-35.4-80.6c-12.7,0-24.4,1.8-37.2,15.4
	C185.5,157.1,179.1,187.4,173.8,208.2z"/>
<path class="st12" d="M173.8,208.2c5.3-20.8,11.7-51.1,22.8-62.8c12-12.7,23-15.1,34.8-15.4c-25.9,11.3-35.7,47.6-39.7,68.3
	c-9.2,48-32.6,51.1-37.6,76.3c5.5-5.5,15.4-4.9,19.1-4.9c-1.6,1.6-5.5,9.1-5.5,19.1c-7.4,1.2-11.1,2.5-17.9,4.3
	c1.2-5.5,3.7-9.2,5.5-11.1c-3.7,0-15.4,0.6-20.9,6.2C132,263,165.8,239.6,173.8,208.2z"/>
<path class="st11" d="M198.5,202.7c1.4-1.4,12.7,5.2,24.6,16c-0.9-3.9-2.3-7.7-4-11.2c-3.7-7.5-8.9-13.5-14.5-17.4
	c10.3,1.4,22.3,11.8,29.9,27.1c2.2,4.4,3.9,9.1,5.1,13.9c1.5,6,3.5,11.8,6.1,17.4c4.6,10.4,5.8,19,4.6,20.1
	c-9.2,9.2-39.3,7.7-52.3-9.8C183.7,239.6,185.4,215.7,198.5,202.7z"/>
<path class="st6" d="M201.5,216.2c-1.1,0.8-6.2,19.1,5.5,35.7c9,12.7,22.8,13.5,32.6,10.5c0.2-0.1,1.3-0.8,1.2-1.8
	c-0.3-4.5-5-16.7-14.2-25.9C210.2,218.1,201.7,216.1,201.5,216.2z"/>
<circle class="st11" cx="227.1" cy="244.2" r="12"/>
<path class="st13" d="M297.5,339.9l-0.7-3.6c-0.2-0.9-1.1-1.5-2-1.3c0,0-0.1,0-0.1,0l-5.1,1.2C292.5,336.9,295.2,338.1,297.5,339.9z
	"/>
<path class="st13" d="M303.6,335.2c-0.9-0.3-1.8,0.2-2.1,1.1c0,0,0,0,0,0l-1.6,5.5c2.9,2.8,4.8,6.5,5.4,10.5
	c0.7-0.6,1.1-1.5,1.3-2.4l3.8-13.2L303.6,335.2z"/>
<path class="st14" d="M435.5,301.8h-5.4c0.6,8.4-0.6,18.5-8.1,24.4c-0.7-2.9-1.6-5.7-2.6-8.5c-2.1-5.3-4.9-6.8-4.9-6.8
	c0,3.7-5.5,16-17.9,30.8c-12.1,14.5-25.9,22.7-28.9,23.4c-0.3,0.1,1.2-12.3-1.8-21.5c-3.7,5.5-9.8,13.2-16.6,21.5
	c-30.2,37-50.5,34.5-50.5,34.5h0.1c15.9-0.1,25.5-4.8,39.4-17.8c8.3-7.7,16.1-15.9,23.5-24.5c0.3,3.2,0.2,6.5-0.1,9.7
	c-0.6,4.3-3.1,9.8-3.1,9.8S381.3,372,398,356c7.9-7.6,14.4-16.6,19.1-26.5c1.9,3.1,3.3,6.4,4.3,9.8c0.8,2.6,1.8,11.1,1.8,11.1
	c14.1-7.7,20.9-22.6,21-34.7c0-0.6,0.6-1.1,1.2-1.1c0.1,0,0.2,0,0.3,0.1c4.5,1.1,9.5,8,9.5,8l0,0
	C455.9,309.8,446.7,301.8,435.5,301.8z"/>
<path class="st8" d="M162.2,301.8h5.4c-0.6,8.4,0.6,18.5,8.1,24.4c0.7-2.9,1.6-5.7,2.6-8.5c2.1-5.3,4.9-6.8,4.9-6.8
	c0,3.7,5.5,16,17.9,30.8c12.1,14.5,25.9,22.7,28.9,23.4c0.3,0.1-1.2-12.3,1.8-21.5c3.7,5.5,9.8,13.2,16.6,21.5
	c30.2,37,50.5,34.5,50.5,34.5h-0.1c-15.9-0.1-25.5-4.8-39.4-17.8c-8.3-7.7-16.1-15.9-23.5-24.5c-0.3,3.2-0.2,6.5,0.1,9.7
	c0.6,4.3,3.1,9.8,3.1,9.8s-22.6-4.9-39.4-20.9c-7.9-7.6-14.4-16.6-19.1-26.5c-1.9,3.1-3.3,6.4-4.3,9.8c-0.8,2.6-1.8,11.1-1.8,11.1
	c-14.2-7.7-20.9-22.6-21-34.7c0-0.6-0.6-1.1-1.2-1.1c-0.1,0-0.2,0-0.4,0.1c-4.5,1.1-9.5,8-9.5,8l0,0
	C141.9,309.8,151,301.8,162.2,301.8z"/>
<path class="st14" d="M318.5,103c11,1.2,18.5,2.8,26.7,6.7c4.9,2.4,10.4,6.8,12.9,10.4c3.3-0.4,6.7-0.5,10-0.4
	c8.6,0.3,13,2.2,13,2.2l-0.6-1.1l0,0c-8.6-12.5-27.8-17.9-44.7-17.9L318.5,103z"/>
<path class="st8" d="M280.1,103c-11,1.2-18.5,2.8-26.7,6.7c-4.9,2.4-10.4,6.8-12.9,10.4c-3.3-0.4-6.7-0.5-10-0.4
	c-8.6,0.3-13,2.2-13,2.2l0.6-1.1l0,0c8.6-12.5,27.8-17.9,44.7-17.9L280.1,103z"/>
</svg>
